<svg width="141" height="41" viewBox="0 0 141 41" fill="none" xmlns="http://www.w3.org/2000/svg">
<path d="M58.798 14.9999H56.134V1.69795H65.008V4.21795H58.798V7.20595H64.252V9.70795H58.798V14.9999Z" fill="#34BC85"/>
<path d="M69.2 14.9999H66.662V5.18995H69.092V6.50395C69.68 5.44795 70.58 4.91995 71.792 4.91995C72.188 4.91995 72.584 4.99195 72.98 5.13595L72.764 7.56595C72.332 7.43395 71.942 7.36795 71.594 7.36795C70.85 7.36795 70.262 7.61995 69.83 8.12395C69.41 8.61595 69.2 9.35395 69.2 10.3379V14.9999Z" fill="#34BC85"/>
<path d="M81.6442 6.35995V5.18995H84.0562V14.9999H81.6442V13.8659C80.8042 14.7779 79.7602 15.2339 78.5122 15.2339C77.0962 15.2339 75.9322 14.7419 75.0202 13.7579C74.1082 12.7739 73.6522 11.5379 73.6522 10.0499C73.6522 8.57395 74.1142 7.35595 75.0382 6.39595C75.9622 5.42395 77.1202 4.93795 78.5122 4.93795C79.7362 4.93795 80.7802 5.41195 81.6442 6.35995ZM81.6802 10.0859C81.6802 9.31795 81.4162 8.65195 80.8882 8.08795C80.3722 7.53595 79.7182 7.25995 78.9262 7.25995C78.1222 7.25995 77.4622 7.53595 76.9462 8.08795C76.4422 8.63995 76.1902 9.30595 76.1902 10.0859C76.1902 10.8779 76.4482 11.5499 76.9642 12.1019C77.4802 12.6539 78.1342 12.9299 78.9262 12.9299C79.7182 12.9299 80.3722 12.6539 80.8882 12.1019C81.4162 11.5379 81.6802 10.8659 81.6802 10.0859Z" fill="#34BC85"/>
<path d="M89.1463 14.9999H86.6083V5.18995H89.0923V6.55795C89.3563 6.06595 89.7643 5.66995 90.3163 5.36995C90.8683 5.06995 91.4863 4.91995 92.1703 4.91995C93.2383 4.91995 94.1443 5.27395 94.8883 5.98195C95.6323 6.68995 96.0043 7.69795 96.0043 9.00595V14.9999H93.4663V9.68995C93.4663 8.92195 93.2803 8.32795 92.9083 7.90795C92.5363 7.47595 92.0323 7.25995 91.3963 7.25995C90.7243 7.25995 90.1783 7.49395 89.7583 7.96195C89.3503 8.41795 89.1463 9.01195 89.1463 9.74395V14.9999Z" fill="#34BC85"/>
<path d="M108.003 14.9999H104.889L101.649 10.8059L100.983 11.3999V14.9999H98.4447V1.31995H100.983V8.53795L104.547 5.18995H107.751L103.377 9.20395L108.003 14.9999Z" fill="#34BC85"/>
<path d="M111.747 1.31995V14.9999H109.209V1.31995H111.747Z" fill="#34BC85"/>
<path d="M118.759 11.5799L120.991 5.18995H123.763L119.821 15.4859C119.341 16.7459 118.765 17.6759 118.093 18.2759C117.433 18.8759 116.623 19.1759 115.663 19.1759C114.919 19.1759 114.289 19.0139 113.773 18.6899L114.205 16.5659C114.649 16.7819 115.069 16.8899 115.465 16.8899C116.245 16.8899 116.881 16.3739 117.373 15.3419L117.571 14.8919L113.287 5.18995H116.221L118.759 11.5799Z" fill="#34BC85"/>
<path d="M60.04 36.2159C58.996 36.2159 58.03 35.9999 57.142 35.5679C56.254 35.1359 55.54 34.5239 55 33.7319L56.53 31.8779C57.418 33.1139 58.594 33.7319 60.058 33.7319C60.61 33.7319 61.066 33.5999 61.426 33.3359C61.786 33.0719 61.966 32.7299 61.966 32.3099C61.966 31.7579 61.564 31.2959 60.76 30.9239C60.664 30.8759 60.226 30.7019 59.446 30.4019C58.834 30.1619 58.312 29.9219 57.88 29.6819C56.476 28.8779 55.774 27.7739 55.774 26.3699C55.774 25.2539 56.194 24.3299 57.034 23.5979C57.886 22.8539 58.978 22.4819 60.31 22.4819C62.038 22.4819 63.496 23.0819 64.684 24.2819L63.262 26.2259C62.902 25.8419 62.452 25.5419 61.912 25.3259C61.384 25.0979 60.862 24.9839 60.346 24.9839C59.818 24.9839 59.398 25.1039 59.086 25.3439C58.786 25.5719 58.636 25.8779 58.636 26.2619C58.636 26.7779 58.996 27.2159 59.716 27.5759L61.03 28.1519C61.774 28.4639 62.314 28.6979 62.65 28.8539C64.162 29.5859 64.918 30.6899 64.918 32.1659C64.918 33.3539 64.468 34.3259 63.568 35.0819C62.668 35.8379 61.492 36.2159 60.04 36.2159Z" fill="#FEFEFE"/>
<path d="M72.5773 25.9379C73.9573 25.9379 75.1093 26.4359 76.0333 27.4319C76.9453 28.4159 77.4013 29.6339 77.4013 31.0859C77.4013 32.5259 76.9393 33.7439 76.0153 34.7399C75.0913 35.7359 73.9393 36.2339 72.5593 36.2339C71.3473 36.2339 70.3213 35.7779 69.4813 34.8659V40.0319H66.9433V26.1899H69.4633V27.3959C70.3033 26.4239 71.3413 25.9379 72.5773 25.9379ZM72.1273 33.9119C72.9313 33.9119 73.5853 33.6419 74.0893 33.1019C74.5933 32.5619 74.8453 31.8959 74.8453 31.1039C74.8453 30.3119 74.5933 29.6459 74.0893 29.1059C73.5853 28.5659 72.9313 28.2959 72.1273 28.2959C71.3353 28.2959 70.6873 28.5659 70.1833 29.1059C69.6793 29.6459 69.4273 30.3119 69.4273 31.1039C69.4273 31.8959 69.6793 32.5619 70.1833 33.1019C70.6873 33.6419 71.3353 33.9119 72.1273 33.9119Z" fill="#FEFEFE"/>
<path d="M88.9872 30.8699C88.9872 31.1699 88.9572 31.5419 88.8972 31.9859H81.5352C81.8952 33.3779 82.8492 34.0739 84.3972 34.0739C85.5372 34.0739 86.5932 33.7439 87.5652 33.0839L88.5732 34.8659C87.3252 35.7659 85.8972 36.2159 84.2892 36.2159C82.5732 36.2159 81.2532 35.7179 80.3292 34.7219C79.4172 33.7379 78.9612 32.5259 78.9612 31.0859C78.9612 29.5859 79.4352 28.3559 80.3832 27.3959C81.3312 26.4239 82.5612 25.9379 84.0732 25.9379C85.5012 25.9379 86.6772 26.3819 87.6012 27.2699C88.5252 28.1579 88.9872 29.3579 88.9872 30.8699ZM84.0732 28.0439C83.4372 28.0439 82.8912 28.2299 82.4352 28.6019C81.9912 28.9619 81.6912 29.4599 81.5352 30.0959H86.5212C86.4012 29.4599 86.1252 28.9619 85.6932 28.6019C85.2612 28.2299 84.7212 28.0439 84.0732 28.0439Z" fill="#FEFEFE"/>
<path d="M98.4728 27.3599V26.1899H100.885V35.9999H98.4728V34.8659C97.6328 35.7779 96.5888 36.2339 95.3408 36.2339C93.9248 36.2339 92.7608 35.7419 91.8488 34.7579C90.9368 33.7739 90.4808 32.5379 90.4808 31.0499C90.4808 29.5739 90.9428 28.3559 91.8668 27.3959C92.7908 26.4239 93.9488 25.9379 95.3408 25.9379C96.5648 25.9379 97.6088 26.4119 98.4728 27.3599ZM98.5088 31.0859C98.5088 30.3179 98.2448 29.6519 97.7168 29.0879C97.2008 28.5359 96.5468 28.2599 95.7548 28.2599C94.9508 28.2599 94.2908 28.5359 93.7748 29.0879C93.2708 29.6399 93.0188 30.3059 93.0188 31.0859C93.0188 31.8779 93.2768 32.5499 93.7928 33.1019C94.3088 33.6539 94.9628 33.9299 95.7548 33.9299C96.5468 33.9299 97.2008 33.6539 97.7168 33.1019C98.2448 32.5379 98.5088 31.8659 98.5088 31.0859Z" fill="#FEFEFE"/>
<path d="M112.995 35.9999H109.881L106.641 31.8059L105.975 32.3999V35.9999H103.437V22.3199H105.975V29.5379L109.539 26.1899H112.743L108.369 30.2039L112.995 35.9999Z" fill="#FEFEFE"/>
<path d="M117.081 23.5259C117.081 23.9699 116.931 24.3419 116.631 24.6419C116.331 24.9419 115.959 25.0919 115.515 25.0919C115.071 25.0919 114.699 24.9419 114.399 24.6419C114.099 24.3419 113.949 23.9699 113.949 23.5259C113.949 23.0819 114.099 22.7159 114.399 22.4279C114.699 22.1279 115.071 21.9779 115.515 21.9779C115.959 21.9779 116.331 22.1279 116.631 22.4279C116.931 22.7159 117.081 23.0819 117.081 23.5259ZM116.775 26.1899V35.9999H114.237V26.1899H116.775Z" fill="#FEFEFE"/>
<path d="M121.843 35.9999H119.305V26.1899H121.789V27.5579C122.053 27.0659 122.461 26.6699 123.013 26.3699C123.565 26.0699 124.183 25.9199 124.867 25.9199C125.935 25.9199 126.841 26.2739 127.585 26.9819C128.329 27.6899 128.701 28.6979 128.701 30.0059V35.9999H126.163V30.6899C126.163 29.9219 125.977 29.3279 125.605 28.9079C125.233 28.4759 124.729 28.2599 124.093 28.2599C123.421 28.2599 122.875 28.4939 122.455 28.9619C122.047 29.4179 121.843 30.0119 121.843 30.7439V35.9999Z" fill="#FEFEFE"/>
<path d="M138.647 27.2699V26.1899H140.987V35.0279C140.987 36.6119 140.483 37.8599 139.475 38.7719C138.455 39.6959 137.147 40.1579 135.551 40.1579C133.859 40.1579 132.359 39.6839 131.051 38.7359L132.041 36.8279C133.169 37.5959 134.315 37.9799 135.479 37.9799C136.427 37.9799 137.171 37.7279 137.711 37.2239C138.263 36.7199 138.539 36.0659 138.539 35.2619V34.7579C137.783 35.5979 136.775 36.0179 135.515 36.0179C134.075 36.0179 132.899 35.5439 131.987 34.5959C131.075 33.6479 130.619 32.4479 130.619 30.9959C130.619 29.5439 131.099 28.3379 132.059 27.3779C133.019 26.4179 134.207 25.9379 135.623 25.9379C136.823 25.9379 137.831 26.3819 138.647 27.2699ZM133.175 31.0139C133.175 31.8299 133.433 32.4959 133.949 33.0119C134.477 33.5399 135.125 33.8039 135.893 33.8039C136.661 33.8039 137.309 33.5399 137.837 33.0119C138.353 32.4839 138.611 31.8179 138.611 31.0139C138.611 30.2219 138.353 29.5679 137.837 29.0519C137.309 28.5239 136.661 28.2599 135.893 28.2599C135.125 28.2599 134.477 28.5239 133.949 29.0519C133.433 29.5679 133.175 30.2219 133.175 31.0139Z" fill="#FEFEFE"/>
<path fill-rule="evenodd" clip-rule="evenodd" d="M0 4C0 1.79085 1.77769 0 3.97059 0H29.1176C31.3105 0 33.0882 1.79085 33.0882 4V10.6667H11.9118V22.6667H33.0882V29.3333C33.0882 31.5425 31.3105 33.3333 29.1176 33.3333H7.98821C7.11065 33.3333 6.26904 33.6845 5.64852 34.3097L0 40V4ZM33.0882 22.6667V10.6667H45V22.6667H33.0882Z" fill="#34BC85"/>
</svg>
