<svg width="167" height="41" viewBox="0 0 167 41" fill="none" xmlns="http://www.w3.org/2000/svg">
<path fill-rule="evenodd" clip-rule="evenodd" d="M0 4C0 1.79085 1.77769 0 3.97059 0H29.1176C31.3105 0 33.0882 1.79085 33.0882 4V10.6667H11.9118V22.6667H33.0882V29.3333C33.0882 31.5425 31.3105 33.3333 29.1176 33.3333H7.98821C7.11065 33.3333 6.26904 33.6845 5.64852 34.3097L0 40V4ZM33.0882 22.6667V10.6667H45V22.6667H33.0882Z" fill="#34BC85"/>
<path d="M72.6181 3.6833C72.0172 3.6833 71.5451 3.84067 71.2017 4.1554C70.8584 4.45583 70.6867 4.88502 70.6867 5.44296V5.61463H74.3133V8.74769H70.6867V17.4602H66.9099V8.74769H65.2361V5.61463H66.9099V5.35712C66.9099 3.72621 67.382 2.49588 68.3262 1.66612C69.2847 0.822057 70.5079 0.400024 71.9957 0.400024C73.2547 0.400024 74.5637 0.743373 75.9228 1.43007L74.6567 4.2627C73.8555 3.87643 73.176 3.6833 72.6181 3.6833Z" fill="#34BC85"/>
<path d="M79.5046 17.4602H75.7278V11.5374V5.61463H79.3544V7.07387C80.1127 5.88645 81.1642 5.29274 82.5089 5.29274C83.024 5.29274 83.5175 5.40004 83.9896 5.61463L83.6892 9.2198C83.1456 9.03382 82.6234 8.94083 82.1227 8.94083C80.3773 8.94083 79.5046 10.0782 79.5046 12.3529V17.4602Z" fill="#34BC85"/>
<path d="M93.7669 6.6876V5.61463H97.3291V17.4602H93.7669V16.4301C92.794 17.3171 91.6281 17.7606 90.269 17.7606C88.5952 17.7606 87.2075 17.1597 86.1059 15.958C85.0186 14.7706 84.475 13.2828 84.475 11.4945C84.475 9.6919 85.0186 8.21836 86.1059 7.07387C87.1932 5.90076 88.5809 5.3142 90.269 5.3142C91.6424 5.3142 92.8083 5.772 93.7669 6.6876ZM93.7239 11.5159C93.7239 10.7577 93.4593 10.1139 92.9299 9.5846C92.3863 9.04097 91.7354 8.76915 90.9771 8.76915C90.1903 8.76915 89.5394 9.04097 89.0244 9.5846C88.5093 10.1139 88.2518 10.7577 88.2518 11.5159C88.2518 12.3028 88.5093 12.9609 89.0244 13.4902C89.568 14.0338 90.2189 14.3057 90.9771 14.3057C91.7354 14.3057 92.3863 14.0338 92.9299 13.4902C93.4593 12.9609 93.7239 12.3028 93.7239 11.5159Z" fill="#34BC85"/>
<path d="M103.5 17.4602H99.7228V5.61463H103.414V7.267C103.714 6.69475 104.201 6.22265 104.873 5.85069C105.545 5.47872 106.297 5.29274 107.126 5.29274C108.4 5.29274 109.48 5.71478 110.367 6.55884C111.254 7.40291 111.697 8.61178 111.697 10.1855V17.4602H107.899V11.1941C107.899 10.4215 107.713 9.82066 107.341 9.39147C106.969 8.96228 106.461 8.74769 105.817 8.74769C105.131 8.74769 104.573 8.98374 104.143 9.45585C103.714 9.91365 103.5 10.5288 103.5 11.3013V17.4602Z" fill="#34BC85"/>
<path d="M126.312 17.4602H121.806L118.308 12.7606L117.75 13.2756V17.4602H113.973V1.08672H117.75V9.04812L121.312 5.61463H125.926L120.84 10.3786L126.312 17.4602Z" fill="#34BC85"/>
<path d="M130.932 1.08672V17.4602H127.155V1.08672H130.932Z" fill="#34BC85"/>
<path d="M139.174 12.4172L141.513 5.61463H145.612L141.02 17.4816C140.362 19.1698 139.575 20.4287 138.659 21.2585C137.758 22.0882 136.635 22.5031 135.29 22.5031C134.289 22.5031 133.437 22.2814 132.736 21.8379L133.466 18.7263C133.995 18.9981 134.51 19.134 135.011 19.134C135.941 19.134 136.699 18.5617 137.286 17.4172L137.35 17.267L132.2 5.61463H136.556L139.174 12.4172Z" fill="#34BC85"/>
<path d="M70.2575 35.7004C68.1974 35.7004 66.4449 35.0209 65 33.6618L66.6953 31.1082C67.8255 32.0953 69.0057 32.5889 70.2361 32.5889C71.0801 32.5889 71.5022 32.3385 71.5022 31.8378C71.5022 31.566 71.2876 31.3442 70.8584 31.1726C70.8441 31.1726 70.8155 31.1654 70.7726 31.1511C70.7296 31.1368 70.6724 31.1225 70.6009 31.1082C70.5293 31.0796 70.4435 31.051 70.3434 31.0223C70.2432 30.9794 70.1216 30.9365 69.9786 30.8936C69.8498 30.8507 69.7067 30.8006 69.5494 30.7434C68.6338 30.4143 68.0901 30.214 67.9185 30.1425C66.4449 29.4558 65.7082 28.3829 65.7082 26.9236C65.7082 25.8077 66.1516 24.9064 67.0386 24.2197C67.9113 23.5187 69.0987 23.1682 70.6009 23.1682C72.2747 23.1682 73.7482 23.6833 75.0215 24.7133L73.3906 27.2026C72.3892 26.5302 71.4378 26.194 70.5365 26.194C70.2361 26.194 69.9786 26.2584 69.764 26.3871C69.5637 26.5159 69.4635 26.6733 69.4635 26.8592C69.4635 27.2312 69.8212 27.5173 70.5365 27.7176C71.7096 28.0467 72.6395 28.39 73.3262 28.7477C74.671 29.4057 75.3434 30.4072 75.3434 31.752C75.3434 32.9108 74.8856 33.8621 73.97 34.606C73.0544 35.3356 71.8169 35.7004 70.2575 35.7004Z" fill="#FEFEFE"/>
<path d="M84.3407 23.2326C86.0288 23.2326 87.4165 23.8335 88.5038 25.0352C89.5911 26.2083 90.1347 27.6747 90.1347 29.4344C90.1347 31.1654 89.5839 32.6461 88.4823 33.8764C87.3951 35.0781 86.0217 35.679 84.3622 35.679C83.046 35.679 81.9229 35.2498 80.993 34.3914V40.2498H77.1947V23.533H80.9287V24.6275C81.8586 23.6976 82.9959 23.2326 84.3407 23.2326ZM86.272 29.4773C86.272 28.7047 86.0217 28.061 85.521 27.5459C85.0202 27.0166 84.3836 26.7519 83.6111 26.7519C82.8385 26.7519 82.1948 27.0166 81.6797 27.5459C81.179 28.061 80.9287 28.7047 80.9287 29.4773C80.9287 30.2212 81.179 30.865 81.6797 31.4086C82.1948 31.9379 82.8385 32.2026 83.6111 32.2026C84.3979 32.2026 85.0345 31.9379 85.521 31.4086C86.0217 30.865 86.272 30.2212 86.272 29.4773Z" fill="#FEFEFE"/>
<path d="M103.857 29.1554C103.857 29.6418 103.814 30.1497 103.728 30.679H95.2732C95.7024 31.9236 96.6681 32.5459 98.1702 32.5459C99.4578 32.5459 100.652 32.1811 101.754 31.4515L103.235 34.0052C101.718 35.0924 99.9728 35.6361 97.9985 35.6361C95.9098 35.6361 94.2932 35.0424 93.1487 33.855C92.0185 32.6675 91.4534 31.2012 91.4534 29.4558C91.4534 27.6675 92.04 26.1869 93.2131 25.0137C94.4005 23.8263 95.9241 23.2326 97.7839 23.2326C99.5436 23.2326 100.996 23.7619 102.14 24.8206C103.285 25.8793 103.857 27.3242 103.857 29.1554ZM97.7839 26.2584C96.4821 26.2584 95.6309 26.8664 95.2303 28.0824H100.252C100.094 27.5102 99.8011 27.0667 99.3719 26.7519C98.9427 26.4229 98.4134 26.2584 97.7839 26.2584Z" fill="#FEFEFE"/>
<path d="M114.43 24.606V23.533H117.992V35.3785H114.43V34.3485C113.457 35.2355 112.291 35.679 110.932 35.679C109.258 35.679 107.87 35.0781 106.769 33.8764C105.682 32.689 105.138 31.2012 105.138 29.4129C105.138 27.6103 105.682 26.1368 106.769 24.9923C107.856 23.8192 109.244 23.2326 110.932 23.2326C112.305 23.2326 113.471 23.6904 114.43 24.606ZM114.387 29.4344C114.387 28.6761 114.122 28.0323 113.593 27.503C113.049 26.9594 112.398 26.6876 111.64 26.6876C110.853 26.6876 110.202 26.9594 109.687 27.503C109.172 28.0323 108.915 28.6761 108.915 29.4344C108.915 30.2212 109.172 30.8793 109.687 31.4086C110.231 31.9522 110.882 32.2241 111.64 32.2241C112.398 32.2241 113.049 31.9522 113.593 31.4086C114.122 30.8793 114.387 30.2212 114.387 29.4344Z" fill="#FEFEFE"/>
<path d="M132.725 35.3785H128.218L124.721 30.679L124.163 31.194V35.3785H120.386V19.0051H124.163V26.9665L127.725 23.533H132.339L127.253 28.297L132.725 35.3785Z" fill="#FEFEFE"/>
<path d="M137.451 23.533V35.3785H133.653V23.533H137.451Z" fill="#FEFEFE"/>
<path d="M143.526 35.3785H139.749V23.533H143.44V25.1854C143.741 24.6132 144.227 24.1411 144.9 23.7691C145.572 23.3971 146.323 23.2112 147.153 23.2112C148.426 23.2112 149.506 23.6332 150.393 24.4773C151.28 25.3213 151.724 26.5302 151.724 28.1039V35.3785H147.925V29.1125C147.925 28.3399 147.739 27.7391 147.367 27.3099C146.996 26.8807 146.488 26.6661 145.844 26.6661C145.157 26.6661 144.599 26.9022 144.17 27.3743C143.741 27.8321 143.526 28.4472 143.526 29.2198V35.3785Z" fill="#FEFEFE"/>
<path d="M162.82 24.5202V23.533H166.232V34.2412C166.232 36.1153 165.595 37.6103 164.322 38.7262C163.048 39.8421 161.439 40.4 159.493 40.4C157.376 40.4 155.509 39.8063 153.892 38.6189L155.266 35.8507C156.639 36.7519 157.998 37.2026 159.343 37.2026C160.373 37.2026 161.174 36.9451 161.747 36.4301C162.333 35.9293 162.626 35.2784 162.626 34.4773V34.2198C161.797 35.0066 160.695 35.4 159.322 35.4C157.562 35.4 156.146 34.8349 155.073 33.7047C154 32.5602 153.463 31.1082 153.463 29.3485C153.463 27.5459 154.036 26.0724 155.18 24.9279C156.31 23.7977 157.748 23.2326 159.493 23.2326C160.81 23.2326 161.918 23.6618 162.82 24.5202ZM162.648 29.3914C162.648 28.6189 162.39 27.9823 161.875 27.4816C161.375 26.9665 160.738 26.709 159.965 26.709C159.193 26.709 158.549 26.9594 158.034 27.4601C157.533 27.9608 157.283 28.6046 157.283 29.3914C157.283 30.1783 157.533 30.8364 158.034 31.3657C158.549 31.8807 159.193 32.1382 159.965 32.1382C160.738 32.1382 161.375 31.8807 161.875 31.3657C162.39 30.8364 162.648 30.1783 162.648 29.3914Z" fill="#FEFEFE"/>
</svg>
