<svg width="210" height="24" viewBox="0 0 210 24" fill="none" xmlns="http://www.w3.org/2000/svg">
<path fill-rule="evenodd" clip-rule="evenodd" d="M3.27273 2.18182C2.67024 2.18182 2.18182 2.67024 2.18182 3.27273V20.2754L4.68316 17.7741C5.10918 17.348 5.79991 17.348 6.22593 17.7741C6.65196 18.2001 6.65196 18.8908 6.22593 19.3168L1.8623 23.6805C1.5503 23.9925 1.08108 24.0858 0.673436 23.917C0.265791 23.7481 0 23.3503 0 22.9091V3.27273C0 1.46525 1.46525 0 3.27273 0H20.7273C22.5347 0 24 1.46525 24 3.27273C24 5.0802 22.5348 6.54545 20.7273 6.54545H17.8909C17.2884 6.54545 16.8 6.05704 16.8 5.45455C16.8 4.85205 17.2884 4.36364 17.8909 4.36364H20.7273C21.3298 4.36364 21.8182 3.87522 21.8182 3.27273C21.8182 2.67024 21.3298 2.18182 20.7273 2.18182H3.27273ZM7.96364 7.63636C7.96364 5.82889 9.42889 4.36364 11.2364 4.36364H14.1818C14.7843 4.36364 15.2727 4.85205 15.2727 5.45455C15.2727 6.05704 14.7843 6.54545 14.1818 6.54545H11.2364C10.6339 6.54545 10.1455 7.03387 10.1455 7.63636C10.1455 8.23886 10.6339 8.72727 11.2364 8.72727H15.7091C17.5166 8.72727 18.9818 10.1925 18.9818 12C18.9818 13.8075 17.5166 15.2727 15.7091 15.2727H9.16364C8.56114 15.2727 8.07273 14.7843 8.07273 14.1818C8.07273 13.5793 8.56114 13.0909 9.16364 13.0909H15.7091C16.3116 13.0909 16.8 12.6025 16.8 12C16.8 11.3975 16.3116 10.9091 15.7091 10.9091H11.2364C9.42889 10.9091 7.96364 9.44384 7.96364 7.63636ZM22.9091 6.54545C23.5116 6.54545 24 7.03387 24 7.63636V16.3636C24 18.1711 22.5348 19.6364 20.7273 19.6364H9.16364C8.56114 19.6364 8.07273 19.1479 8.07273 18.5455C8.07273 17.943 8.56114 17.4545 9.16364 17.4545H20.7273C21.3298 17.4545 21.8182 16.9661 21.8182 16.3636V7.63636C21.8182 7.03387 22.3066 6.54545 22.9091 6.54545Z" fill="url(#paint0_linear_270_45)"/>
<path d="M35.3274 18V2.72727H45.4396V5.38956H38.5565V9.02876H44.7685V11.6911H38.5565V18H35.3274ZM47.3674 18V6.54545H50.4473V8.54403H50.5666C50.7754 7.8331 51.1259 7.29616 51.6181 6.93324C52.1103 6.56534 52.677 6.38139 53.3184 6.38139C53.4775 6.38139 53.649 6.39133 53.8329 6.41122C54.0169 6.43111 54.1784 6.45845 54.3176 6.49325V9.31214C54.1685 9.2674 53.9622 9.22763 53.6987 9.19283C53.4352 9.15803 53.1941 9.14062 52.9753 9.14062C52.508 9.14062 52.0904 9.24254 51.7225 9.44638C51.3596 9.64524 51.0712 9.92365 50.8574 10.2816C50.6486 10.6396 50.5442 11.0522 50.5442 11.5195V18H47.3674ZM58.8983 18.2163C58.1675 18.2163 57.5162 18.0895 56.9445 17.8359C56.3728 17.5774 55.9204 17.1971 55.5873 16.695C55.2591 16.1879 55.0951 15.5565 55.0951 14.8008C55.0951 14.1644 55.2119 13.63 55.4456 13.1974C55.6792 12.7649 55.9974 12.4169 56.4001 12.1534C56.8028 11.8899 57.2602 11.6911 57.7723 11.5568C58.2893 11.4226 58.8312 11.3281 59.398 11.2734C60.0642 11.2038 60.6011 11.1392 61.0088 11.0795C61.4165 11.0149 61.7123 10.9205 61.8962 10.7962C62.0802 10.6719 62.1721 10.4879 62.1721 10.2443V10.1996C62.1721 9.72727 62.023 9.36186 61.7247 9.10334C61.4314 8.84481 61.0138 8.71555 60.4719 8.71555C59.9001 8.71555 59.4452 8.84233 59.1072 9.09588C58.7691 9.34446 58.5454 9.65767 58.436 10.0355L55.4978 9.79688C55.6469 9.10085 55.9403 8.49929 56.3778 7.99219C56.8153 7.48011 57.3795 7.08736 58.0706 6.81392C58.7666 6.53551 59.572 6.39631 60.4868 6.39631C61.1231 6.39631 61.7322 6.47088 62.3138 6.62003C62.9005 6.76918 63.42 7.00035 63.8724 7.31356C64.3298 7.62678 64.6903 8.02947 64.9537 8.52166C65.2172 9.00888 65.349 9.59304 65.349 10.2741V18H62.3362V16.4116H62.2467C62.0628 16.7695 61.8167 17.0852 61.5084 17.3587C61.2002 17.6271 60.8298 17.8384 60.3973 17.9925C59.9648 18.1417 59.4651 18.2163 58.8983 18.2163ZM59.8082 16.0238C60.2755 16.0238 60.6881 15.9318 61.0461 15.7479C61.404 15.5589 61.6849 15.3054 61.8888 14.9872C62.0926 14.669 62.1945 14.3086 62.1945 13.9059V12.6903C62.0951 12.755 61.9584 12.8146 61.7844 12.8693C61.6153 12.919 61.4239 12.9663 61.2101 13.011C60.9964 13.0508 60.7826 13.0881 60.5688 13.1229C60.355 13.1527 60.1611 13.18 59.9871 13.2049C59.6143 13.2596 59.2886 13.3466 59.0102 13.4659C58.7318 13.5852 58.5155 13.7468 58.3614 13.9506C58.2073 14.1495 58.1302 14.3981 58.1302 14.6964C58.1302 15.1289 58.2868 15.4595 58.6001 15.6882C58.9182 15.9119 59.3209 16.0238 59.8082 16.0238ZM70.9905 11.3778V18H67.8137V6.54545H70.8414V8.56641H70.9756C71.2291 7.90021 71.6542 7.37322 72.2508 6.98544C72.8474 6.59268 73.5708 6.39631 74.4209 6.39631C75.2164 6.39631 75.9099 6.57031 76.5015 6.91832C77.0931 7.26633 77.553 7.76349 77.8811 8.4098C78.2093 9.05114 78.3733 9.81676 78.3733 10.7067V18H75.1965V11.2734C75.2014 10.5724 75.0225 10.0256 74.6595 9.63281C74.2966 9.23509 73.797 9.03622 73.1606 9.03622C72.733 9.03622 72.3552 9.1282 72.0271 9.31214C71.7039 9.49609 71.4504 9.76456 71.2664 10.1175C71.0874 10.4656 70.9955 10.8857 70.9905 11.3778ZM83.7557 14.7038L83.7631 10.8931H84.2255L87.8945 6.54545H91.5412L86.6119 12.3026H85.8587L83.7557 14.7038ZM80.8771 18V2.72727H84.054V18H80.8771ZM88.0362 18L84.6655 13.011L86.7834 10.7663L91.7575 18H88.0362ZM96.2766 2.72727V18H93.0998V2.72727H96.2766ZM100.783 22.2955C100.38 22.2955 100.002 22.2631 99.6492 22.1985C99.3012 22.1388 99.0129 22.0618 98.7842 21.9673L99.5001 19.5959C99.873 19.7102 100.209 19.7724 100.507 19.7823C100.81 19.7923 101.071 19.7227 101.29 19.5735C101.514 19.4244 101.695 19.1708 101.834 18.8129L102.021 18.3281L97.9117 6.54545H101.253L103.624 14.9574H103.743L106.137 6.54545H109.5L105.048 19.2379C104.835 19.8544 104.544 20.3913 104.176 20.8487C103.813 21.3111 103.353 21.6665 102.796 21.9151C102.239 22.1687 101.568 22.2955 100.783 22.2955ZM119.471 7.11967C119.411 6.51811 119.155 6.05078 118.703 5.71768C118.25 5.38459 117.636 5.21804 116.861 5.21804C116.334 5.21804 115.889 5.29261 115.526 5.44176C115.163 5.58594 114.885 5.78729 114.691 6.04581C114.502 6.30433 114.407 6.59766 114.407 6.92578C114.397 7.19922 114.455 7.43786 114.579 7.64169C114.708 7.84553 114.885 8.02202 115.108 8.17116C115.332 8.31534 115.591 8.44212 115.884 8.55149C116.177 8.65589 116.491 8.74538 116.824 8.81996L118.196 9.14808C118.862 9.29723 119.473 9.49609 120.03 9.74467C120.587 9.99325 121.069 10.299 121.477 10.6619C121.885 11.0249 122.2 11.4524 122.424 11.9446C122.653 12.4368 122.77 13.0011 122.775 13.6374C122.77 14.5721 122.531 15.3825 122.059 16.0685C121.591 16.7496 120.915 17.2791 120.03 17.657C119.15 18.0298 118.089 18.2163 116.846 18.2163C115.613 18.2163 114.539 18.0273 113.624 17.6495C112.715 17.2717 112.004 16.7124 111.492 15.9716C110.984 15.2259 110.718 14.3036 110.694 13.2049H113.818C113.853 13.717 114 14.1445 114.258 14.4876C114.522 14.8256 114.872 15.0817 115.31 15.2557C115.752 15.4247 116.252 15.5092 116.809 15.5092C117.356 15.5092 117.83 15.4297 118.233 15.2706C118.641 15.1115 118.956 14.8903 119.18 14.6069C119.404 14.3235 119.516 13.9979 119.516 13.63C119.516 13.2869 119.414 12.9986 119.21 12.7649C119.011 12.5312 118.718 12.3324 118.33 12.1683C117.947 12.0043 117.477 11.8551 116.921 11.7209L115.258 11.3033C113.97 10.9901 112.953 10.5004 112.207 9.83416C111.462 9.16797 111.091 8.2706 111.096 7.14204C111.091 6.21733 111.337 5.40945 111.835 4.7184C112.337 4.02734 113.025 3.48793 113.9 3.10014C114.775 2.71236 115.77 2.51847 116.883 2.51847C118.017 2.51847 119.006 2.71236 119.851 3.10014C120.701 3.48793 121.363 4.02734 121.835 4.7184C122.307 5.40945 122.551 6.20987 122.566 7.11967H119.471ZM124.887 22.2955V6.54545H128.019V8.46946H128.161C128.3 8.16122 128.501 7.84801 128.765 7.52983C129.033 7.20668 129.381 6.93821 129.809 6.72443C130.241 6.50568 130.778 6.39631 131.42 6.39631C132.255 6.39631 133.025 6.61506 133.731 7.05256C134.437 7.48509 135.002 8.13885 135.424 9.01385C135.847 9.88388 136.058 10.9751 136.058 12.2876C136.058 13.5653 135.852 14.6442 135.439 15.5241C135.031 16.3991 134.475 17.0629 133.769 17.5153C133.068 17.9627 132.282 18.1864 131.412 18.1864C130.796 18.1864 130.271 18.0845 129.839 17.8807C129.411 17.6768 129.061 17.4208 128.787 17.1126C128.514 16.7994 128.305 16.4837 128.161 16.1655H128.064V22.2955H124.887ZM127.997 12.2727C127.997 12.9538 128.091 13.5479 128.28 14.055C128.469 14.5621 128.742 14.9574 129.1 15.2408C129.458 15.5192 129.893 15.6584 130.405 15.6584C130.922 15.6584 131.36 15.5167 131.718 15.2333C132.076 14.945 132.347 14.5472 132.531 14.0401C132.72 13.5281 132.814 12.9389 132.814 12.2727C132.814 11.6115 132.722 11.0298 132.538 10.5277C132.354 10.0256 132.083 9.63281 131.725 9.34943C131.367 9.06605 130.927 8.92436 130.405 8.92436C129.888 8.92436 129.451 9.06108 129.093 9.33452C128.74 9.60795 128.469 9.99574 128.28 10.4979C128.091 11 127.997 11.5916 127.997 12.2727ZM143.396 18.2237C142.218 18.2237 141.204 17.9851 140.354 17.5078C139.508 17.0256 138.857 16.3445 138.4 15.4645C137.942 14.5795 137.714 13.533 137.714 12.3249C137.714 11.1467 137.942 10.1126 138.4 9.22266C138.857 8.33274 139.501 7.6392 140.331 7.14204C141.166 6.64489 142.146 6.39631 143.269 6.39631C144.025 6.39631 144.729 6.51811 145.38 6.76172C146.036 7.00035 146.608 7.3608 147.095 7.84304C147.587 8.32528 147.97 8.93182 148.243 9.66264C148.517 10.3885 148.654 11.2386 148.654 12.2131V13.0856H138.981V11.1168H145.663C145.663 10.6594 145.564 10.2543 145.365 9.90128C145.166 9.5483 144.89 9.27237 144.537 9.07351C144.189 8.86967 143.784 8.76776 143.322 8.76776C142.839 8.76776 142.412 8.87962 142.039 9.10334C141.671 9.32209 141.383 9.6179 141.174 9.99077C140.965 10.3587 140.858 10.7688 140.853 11.2212V13.093C140.853 13.6598 140.958 14.1495 141.166 14.5621C141.38 14.9748 141.681 15.293 142.069 15.5167C142.456 15.7404 142.916 15.8523 143.448 15.8523C143.801 15.8523 144.124 15.8026 144.418 15.7031C144.711 15.6037 144.962 15.4545 145.171 15.2557C145.38 15.0568 145.539 14.8132 145.648 14.5249L148.586 14.7188C148.437 15.4247 148.132 16.0412 147.669 16.5682C147.212 17.0902 146.62 17.4979 145.894 17.7912C145.173 18.0795 144.341 18.2237 143.396 18.2237ZM153.993 18.2163C153.262 18.2163 152.611 18.0895 152.039 17.8359C151.468 17.5774 151.015 17.1971 150.682 16.695C150.354 16.1879 150.19 15.5565 150.19 14.8008C150.19 14.1644 150.307 13.63 150.54 13.1974C150.774 12.7649 151.092 12.4169 151.495 12.1534C151.898 11.8899 152.355 11.6911 152.867 11.5568C153.384 11.4226 153.926 11.3281 154.493 11.2734C155.159 11.2038 155.696 11.1392 156.104 11.0795C156.511 11.0149 156.807 10.9205 156.991 10.7962C157.175 10.6719 157.267 10.4879 157.267 10.2443V10.1996C157.267 9.72727 157.118 9.36186 156.819 9.10334C156.526 8.84481 156.108 8.71555 155.567 8.71555C154.995 8.71555 154.54 8.84233 154.202 9.09588C153.864 9.34446 153.64 9.65767 153.531 10.0355L150.593 9.79688C150.742 9.10085 151.035 8.49929 151.472 7.99219C151.91 7.48011 152.474 7.08736 153.165 6.81392C153.861 6.53551 154.667 6.39631 155.581 6.39631C156.218 6.39631 156.827 6.47088 157.409 6.62003C157.995 6.76918 158.515 7.00035 158.967 7.31356C159.425 7.62678 159.785 8.02947 160.048 8.52166C160.312 9.00888 160.444 9.59304 160.444 10.2741V18H157.431V16.4116H157.341C157.157 16.7695 156.911 17.0852 156.603 17.3587C156.295 17.6271 155.925 17.8384 155.492 17.9925C155.059 18.1417 154.56 18.2163 153.993 18.2163ZM154.903 16.0238C155.37 16.0238 155.783 15.9318 156.141 15.7479C156.499 15.5589 156.78 15.3054 156.983 14.9872C157.187 14.669 157.289 14.3086 157.289 13.9059V12.6903C157.19 12.755 157.053 12.8146 156.879 12.8693C156.71 12.919 156.519 12.9663 156.305 13.011C156.091 13.0508 155.877 13.0881 155.664 13.1229C155.45 13.1527 155.256 13.18 155.082 13.2049C154.709 13.2596 154.383 13.3466 154.105 13.4659C153.827 13.5852 153.61 13.7468 153.456 13.9506C153.302 14.1495 153.225 14.3981 153.225 14.6964C153.225 15.1289 153.382 15.4595 153.695 15.6882C154.013 15.9119 154.416 16.0238 154.903 16.0238ZM165.787 14.7038L165.794 10.8931H166.257L169.926 6.54545H173.572L168.643 12.3026H167.89L165.787 14.7038ZM162.908 18V2.72727H166.085V18H162.908ZM170.067 18L166.697 13.011L168.815 10.7663L173.789 18H170.067ZM175.131 18V6.54545H178.308V18H175.131ZM176.727 5.06889C176.255 5.06889 175.849 4.91229 175.511 4.59908C175.178 4.28089 175.012 3.90057 175.012 3.4581C175.012 3.0206 175.178 2.64524 175.511 2.33203C175.849 2.01385 176.255 1.85476 176.727 1.85476C177.199 1.85476 177.602 2.01385 177.935 2.33203C178.273 2.64524 178.442 3.0206 178.442 3.4581C178.442 3.90057 178.273 4.28089 177.935 4.59908C177.602 4.91229 177.199 5.06889 176.727 5.06889ZM184.03 11.3778V18H180.853V6.54545H183.88V8.56641H184.015C184.268 7.90021 184.693 7.37322 185.29 6.98544C185.886 6.59268 186.61 6.39631 187.46 6.39631C188.255 6.39631 188.949 6.57031 189.541 6.91832C190.132 7.26633 190.592 7.76349 190.92 8.4098C191.248 9.05114 191.412 9.81676 191.412 10.7067V18H188.236V11.2734C188.241 10.5724 188.062 10.0256 187.699 9.63281C187.336 9.23509 186.836 9.03622 186.2 9.03622C185.772 9.03622 185.394 9.1282 185.066 9.31214C184.743 9.49609 184.489 9.76456 184.305 10.1175C184.127 10.4656 184.035 10.8857 184.03 11.3778ZM199.077 22.5341C198.048 22.5341 197.165 22.3924 196.429 22.109C195.699 21.8306 195.117 21.4503 194.684 20.968C194.252 20.4858 193.971 19.9439 193.842 19.3423L196.78 18.9471C196.869 19.1758 197.011 19.3896 197.205 19.5884C197.399 19.7873 197.655 19.9464 197.973 20.0657C198.296 20.19 198.689 20.2521 199.151 20.2521C199.842 20.2521 200.412 20.0831 200.859 19.745C201.311 19.4119 201.538 18.8526 201.538 18.0671V15.9716H201.403C201.264 16.2898 201.055 16.5906 200.777 16.8739C200.499 17.1573 200.141 17.3885 199.703 17.5675C199.266 17.7464 198.744 17.8359 198.137 17.8359C197.277 17.8359 196.494 17.6371 195.788 17.2393C195.087 16.8366 194.528 16.2227 194.11 15.3974C193.697 14.5671 193.491 13.5181 193.491 12.2504C193.491 10.9528 193.702 9.86896 194.125 8.99893C194.548 8.12891 195.109 7.47763 195.81 7.0451C196.516 6.61257 197.289 6.39631 198.13 6.39631C198.771 6.39631 199.308 6.50568 199.74 6.72443C200.173 6.93821 200.521 7.20668 200.784 7.52983C201.053 7.84801 201.259 8.16122 201.403 8.46946H201.523V6.54545H204.677V18.1119C204.677 19.0863 204.439 19.9016 203.961 20.5579C203.484 21.2141 202.823 21.7063 201.978 22.0344C201.137 22.3675 200.17 22.5341 199.077 22.5341ZM199.144 15.4496C199.656 15.4496 200.088 15.3228 200.441 15.0692C200.799 14.8107 201.073 14.4428 201.262 13.9656C201.456 13.4833 201.553 12.9066 201.553 12.2354C201.553 11.5643 201.458 10.9826 201.269 10.4904C201.08 9.99325 200.807 9.60795 200.449 9.33452C200.091 9.06108 199.656 8.92436 199.144 8.92436C198.622 8.92436 198.182 9.06605 197.824 9.34943C197.466 9.62784 197.195 10.0156 197.011 10.5128C196.827 11.0099 196.735 11.5842 196.735 12.2354C196.735 12.8967 196.827 13.4684 197.011 13.9506C197.2 14.4279 197.471 14.7983 197.824 15.0618C198.182 15.3203 198.622 15.4496 199.144 15.4496Z" fill="url(#paint1_linear_270_45)"/>
<defs>
<linearGradient id="paint0_linear_270_45" x1="1.09091" y1="1.09091" x2="22.9091" y2="22.9091" gradientUnits="userSpaceOnUse">
<stop stop-color="#34BC85"/>
<stop offset="1" stop-color="#0F5156"/>
</linearGradient>
<linearGradient id="paint1_linear_270_45" x1="206" y1="21" x2="34" y2="-1.09488e-06" gradientUnits="userSpaceOnUse">
<stop stop-color="#0F5156"/>
<stop offset="1" stop-color="#34BC85"/>
</linearGradient>
</defs>
</svg>
