<svg width="176" height="21" viewBox="0 0 176 21" fill="none" xmlns="http://www.w3.org/2000/svg">
<path d="M4.6 16H1.64V1.22H11.5V4.02H4.6V7.34H10.66V10.12H4.6V16ZM15.8578 16H13.0378V5.1H15.7378V6.56C16.3911 5.38667 17.3911 4.8 18.7378 4.8C19.1778 4.8 19.6178 4.88 20.0578 5.04L19.8178 7.74C19.3378 7.59333 18.9045 7.52 18.5178 7.52C17.6911 7.52 17.0378 7.8 16.5578 8.36C16.0911 8.90667 15.8578 9.72667 15.8578 10.82V16ZM29.3847 6.4V5.1H32.0647V16H29.3847V14.74C28.4514 15.7533 27.2914 16.26 25.9047 16.26C24.3314 16.26 23.038 15.7133 22.0247 14.62C21.0114 13.5267 20.5047 12.1533 20.5047 10.5C20.5047 8.86 21.018 7.50667 22.0447 6.44C23.0714 5.36 24.358 4.82 25.9047 4.82C27.2647 4.82 28.4247 5.34667 29.3847 6.4ZM29.4247 10.54C29.4247 9.68667 29.1314 8.94667 28.5447 8.32C27.9714 7.70667 27.2447 7.4 26.3647 7.4C25.4714 7.4 24.738 7.70667 24.1647 8.32C23.6047 8.93333 23.3247 9.67333 23.3247 10.54C23.3247 11.42 23.6114 12.1667 24.1847 12.78C24.758 13.3933 25.4847 13.7 26.3647 13.7C27.2447 13.7 27.9714 13.3933 28.5447 12.78C29.1314 12.1533 29.4247 11.4067 29.4247 10.54ZM37.4203 16H34.6003V5.1H37.3603V6.62C37.6536 6.07333 38.107 5.63333 38.7203 5.3C39.3336 4.96667 40.0203 4.8 40.7803 4.8C41.967 4.8 42.9736 5.19333 43.8003 5.98C44.627 6.76667 45.0403 7.88667 45.0403 9.34V16H42.2203V10.1C42.2203 9.24667 42.0136 8.58667 41.6003 8.12C41.187 7.64 40.627 7.4 39.9203 7.4C39.1736 7.4 38.567 7.66 38.1003 8.18C37.647 8.68667 37.4203 9.34667 37.4203 10.16V16ZM58.0719 16H54.6119L51.0119 11.34L50.2719 12V16H47.4519V0.799999H50.2719V8.82L54.2319 5.1H57.7919L52.9319 9.56L58.0719 16ZM61.932 0.799999V16H59.112V0.799999H61.932ZM69.4236 12.2L71.9036 5.1H74.9836L70.6036 16.54C70.0703 17.94 69.4303 18.9733 68.6836 19.64C67.9503 20.3067 67.0503 20.64 65.9836 20.64C65.1569 20.64 64.4569 20.46 63.8836 20.1L64.3636 17.74C64.8569 17.98 65.3236 18.1 65.7636 18.1C66.6303 18.1 67.3369 17.5267 67.8836 16.38L68.1036 15.88L63.3436 5.1H66.6036L69.4236 12.2ZM85.9214 16.24C84.7614 16.24 83.6881 16 82.7014 15.52C81.7147 15.04 80.9214 14.36 80.3214 13.48L82.0214 11.42C83.0081 12.7933 84.3147 13.48 85.9414 13.48C86.5547 13.48 87.0614 13.3333 87.4614 13.04C87.8614 12.7467 88.0614 12.3667 88.0614 11.9C88.0614 11.2867 87.6147 10.7733 86.7214 10.36C86.6147 10.3067 86.1281 10.1133 85.2614 9.78C84.5814 9.51333 84.0014 9.24667 83.5214 8.98C81.9614 8.08667 81.1814 6.86 81.1814 5.3C81.1814 4.06 81.6481 3.03333 82.5814 2.22C83.5281 1.39333 84.7414 0.979999 86.2214 0.979999C88.1414 0.979999 89.7614 1.64667 91.0814 2.98L89.5014 5.14C89.1014 4.71333 88.6014 4.38 88.0014 4.14C87.4147 3.88667 86.8347 3.76 86.2614 3.76C85.6747 3.76 85.2081 3.89333 84.8614 4.16C84.5281 4.41333 84.3614 4.75333 84.3614 5.18C84.3614 5.75333 84.7614 6.24 85.5614 6.64L87.0214 7.28C87.8481 7.62667 88.4481 7.88667 88.8214 8.06C90.5014 8.87333 91.3414 10.1 91.3414 11.74C91.3414 13.06 90.8414 14.14 89.8414 14.98C88.8414 15.82 87.5347 16.24 85.9214 16.24ZM99.5517 4.82C101.085 4.82 102.365 5.37333 103.392 6.48C104.405 7.57333 104.912 8.92667 104.912 10.54C104.912 12.14 104.398 13.4933 103.372 14.6C102.345 15.7067 101.065 16.26 99.5317 16.26C98.1851 16.26 97.0451 15.7533 96.1117 14.74V20.48H93.2917V5.1H96.0917V6.44C97.0251 5.36 98.1784 4.82 99.5517 4.82ZM99.0517 13.68C99.9451 13.68 100.672 13.38 101.232 12.78C101.792 12.18 102.072 11.44 102.072 10.56C102.072 9.68 101.792 8.94 101.232 8.34C100.672 7.74 99.9451 7.44 99.0517 7.44C98.1717 7.44 97.4517 7.74 96.8917 8.34C96.3317 8.94 96.0517 9.68 96.0517 10.56C96.0517 11.44 96.3317 12.18 96.8917 12.78C97.4517 13.38 98.1717 13.68 99.0517 13.68ZM117.485 10.3C117.485 10.6333 117.452 11.0467 117.385 11.54H109.205C109.605 13.0867 110.665 13.86 112.385 13.86C113.652 13.86 114.825 13.4933 115.905 12.76L117.025 14.74C115.638 15.74 114.052 16.24 112.265 16.24C110.358 16.24 108.892 15.6867 107.865 14.58C106.852 13.4867 106.345 12.14 106.345 10.54C106.345 8.87333 106.872 7.50667 107.925 6.44C108.978 5.36 110.345 4.82 112.025 4.82C113.612 4.82 114.918 5.31333 115.945 6.3C116.972 7.28667 117.485 8.62 117.485 10.3ZM112.025 7.16C111.318 7.16 110.712 7.36667 110.205 7.78C109.712 8.18 109.378 8.73333 109.205 9.44H114.745C114.612 8.73333 114.305 8.18 113.825 7.78C113.345 7.36667 112.745 7.16 112.025 7.16ZM127.725 6.4V5.1H130.405V16H127.725V14.74C126.791 15.7533 125.631 16.26 124.245 16.26C122.671 16.26 121.378 15.7133 120.365 14.62C119.351 13.5267 118.845 12.1533 118.845 10.5C118.845 8.86 119.358 7.50667 120.385 6.44C121.411 5.36 122.698 4.82 124.245 4.82C125.605 4.82 126.765 5.34667 127.725 6.4ZM127.765 10.54C127.765 9.68667 127.471 8.94667 126.885 8.32C126.311 7.70667 125.585 7.4 124.705 7.4C123.811 7.4 123.078 7.70667 122.505 8.32C121.945 8.93333 121.665 9.67333 121.665 10.54C121.665 11.42 121.951 12.1667 122.525 12.78C123.098 13.3933 123.825 13.7 124.705 13.7C125.585 13.7 126.311 13.3933 126.885 12.78C127.471 12.1533 127.765 11.4067 127.765 10.54ZM143.56 16H140.1L136.5 11.34L135.76 12V16H132.94V0.799999H135.76V8.82L139.72 5.1H143.28L138.42 9.56L143.56 16ZM147.8 2.14C147.8 2.63333 147.634 3.04667 147.3 3.38C146.967 3.71333 146.554 3.88 146.06 3.88C145.567 3.88 145.154 3.71333 144.82 3.38C144.487 3.04667 144.32 2.63333 144.32 2.14C144.32 1.64667 144.487 1.24 144.82 0.92C145.154 0.586666 145.567 0.419999 146.06 0.419999C146.554 0.419999 146.967 0.586666 147.3 0.92C147.634 1.24 147.8 1.64667 147.8 2.14ZM147.46 5.1V16H144.64V5.1H147.46ZM152.791 16H149.971V5.1H152.731V6.62C153.025 6.07333 153.478 5.63333 154.091 5.3C154.705 4.96667 155.391 4.8 156.151 4.8C157.338 4.8 158.345 5.19333 159.171 5.98C159.998 6.76667 160.411 7.88667 160.411 9.34V16H157.591V10.1C157.591 9.24667 157.385 8.58667 156.971 8.12C156.558 7.64 155.998 7.4 155.291 7.4C154.545 7.4 153.938 7.66 153.471 8.18C153.018 8.68667 152.791 9.34667 152.791 10.16V16ZM171.163 6.3V5.1H173.763V14.92C173.763 16.68 173.203 18.0667 172.083 19.08C170.95 20.1067 169.496 20.62 167.723 20.62C165.843 20.62 164.176 20.0933 162.723 19.04L163.823 16.92C165.076 17.7733 166.35 18.2 167.643 18.2C168.696 18.2 169.523 17.92 170.123 17.36C170.736 16.8 171.043 16.0733 171.043 15.18V14.62C170.203 15.5533 169.083 16.02 167.683 16.02C166.083 16.02 164.776 15.4933 163.763 14.44C162.75 13.3867 162.243 12.0533 162.243 10.44C162.243 8.82667 162.776 7.48667 163.843 6.42C164.91 5.35333 166.23 4.82 167.803 4.82C169.136 4.82 170.256 5.31333 171.163 6.3ZM165.083 10.46C165.083 11.3667 165.37 12.1067 165.943 12.68C166.53 13.2667 167.25 13.56 168.103 13.56C168.956 13.56 169.676 13.2667 170.263 12.68C170.836 12.0933 171.123 11.3533 171.123 10.46C171.123 9.58 170.836 8.85333 170.263 8.28C169.676 7.69333 168.956 7.4 168.103 7.4C167.25 7.4 166.53 7.69333 165.943 8.28C165.37 8.85333 165.083 9.58 165.083 10.46Z" fill="#0F5156"/>
</svg>
