<svg width="110" height="110" viewBox="0 0 110 110" fill="none" xmlns="http://www.w3.org/2000/svg">
<path d="M5 105H0C0 107.022 1.21821 108.845 3.08658 109.619C4.95495 110.393 7.10554 109.966 8.53553 108.536L5 105ZM65 30C67.7614 30 70 27.7614 70 25C70 22.2386 67.7614 20 65 20V30ZM42 60C39.2386 60 37 62.2386 37 65C37 67.7614 39.2386 70 42 70V60ZM82 20C79.2386 20 77 22.2386 77 25C77 27.7614 79.2386 30 82 30V20ZM28.5355 88.5355C30.4882 86.5829 30.4882 83.4171 28.5355 81.4645C26.5829 79.5118 23.4171 79.5118 21.4645 81.4645L28.5355 88.5355ZM42 80C39.2386 80 37 82.2386 37 85C37 87.7614 39.2386 90 42 90V80ZM110 35C110 32.2386 107.761 30 105 30C102.239 30 100 32.2386 100 35H110ZM10 105V15H0V105H10ZM15 10H95V0H15V10ZM65 20H51.5V30H65V20ZM51.5 50H72V40H51.5V50ZM72 60H42V70H72V60ZM95 20H82V30H95V20ZM8.53553 108.536L28.5355 88.5355L21.4645 81.4645L1.46447 101.464L8.53553 108.536ZM42 90H95V80H42V90ZM110 75V35H100V75H110ZM77 55C77 57.7614 74.7614 60 72 60V70C80.2843 70 87 63.2843 87 55H77ZM72 50C74.7614 50 77 52.2386 77 55H87C87 46.7157 80.2843 40 72 40V50ZM95 90C103.284 90 110 83.2843 110 75H100C100 77.7614 97.7614 80 95 80V90ZM100 15C100 17.7614 97.7614 20 95 20V30C103.284 30 110 23.2843 110 15H100ZM36.5 35C36.5 43.2843 43.2157 50 51.5 50V40C48.7386 40 46.5 37.7614 46.5 35H36.5ZM95 10C97.7614 10 100 12.2386 100 15H110C110 6.71573 103.284 0 95 0V10ZM51.5 20C43.2157 20 36.5 26.7157 36.5 35H46.5C46.5 32.2386 48.7386 30 51.5 30V20ZM10 15C10 12.2386 12.2386 10 15 10V0C6.71573 0 0 6.71573 0 15H10Z" fill="url(#paint0_linear_270_41)"/>
<defs>
<linearGradient id="paint0_linear_270_41" x1="5" y1="5" x2="105" y2="105" gradientUnits="userSpaceOnUse">
<stop stop-color="#34BC85"/>
<stop offset="1" stop-color="#0F5156"/>
</linearGradient>
</defs>
</svg>
