<svg width="158" height="44" viewBox="0 0 158 44" fill="none" xmlns="http://www.w3.org/2000/svg">
<path d="M74.14 15H71.476V1.698H80.35V4.218H74.14V7.206H79.594V9.708H74.14V15ZM84.542 15H82.004V5.19H84.434V6.504C85.022 5.448 85.922 4.92 87.134 4.92C87.53 4.92 87.926 4.992 88.322 5.136L88.106 7.566C87.674 7.434 87.284 7.368 86.936 7.368C86.192 7.368 85.604 7.62 85.172 8.124C84.752 8.616 84.542 9.354 84.542 10.338V15ZM96.9862 6.36V5.19H99.3982V15H96.9862V13.866C96.1462 14.778 95.1022 15.234 93.8542 15.234C92.4382 15.234 91.2742 14.742 90.3622 13.758C89.4502 12.774 88.9942 11.538 88.9942 10.05C88.9942 8.574 89.4562 7.356 90.3802 6.396C91.3042 5.424 92.4622 4.938 93.8542 4.938C95.0782 4.938 96.1222 5.412 96.9862 6.36ZM97.0222 10.086C97.0222 9.318 96.7582 8.652 96.2302 8.088C95.7142 7.536 95.0602 7.26 94.2682 7.26C93.4642 7.26 92.8042 7.536 92.2882 8.088C91.7842 8.64 91.5322 9.306 91.5322 10.086C91.5322 10.878 91.7902 11.55 92.3062 12.102C92.8222 12.654 93.4762 12.93 94.2682 12.93C95.0602 12.93 95.7142 12.654 96.2302 12.102C96.7582 11.538 97.0222 10.866 97.0222 10.086ZM104.488 15H101.95V5.19H104.434V6.558C104.698 6.066 105.106 5.67 105.658 5.37C106.21 5.07 106.828 4.92 107.512 4.92C108.58 4.92 109.486 5.274 110.23 5.982C110.974 6.69 111.346 7.698 111.346 9.006V15H108.808V9.69C108.808 8.922 108.622 8.328 108.25 7.908C107.878 7.476 107.374 7.26 106.738 7.26C106.066 7.26 105.52 7.494 105.1 7.962C104.692 8.418 104.488 9.012 104.488 9.744V15ZM123.345 15H120.231L116.991 10.806L116.325 11.4V15H113.787V1.32H116.325V8.538L119.889 5.19H123.093L118.719 9.204L123.345 15ZM127.089 1.32V15H124.551V1.32H127.089ZM134.101 11.58L136.333 5.19H139.105L135.163 15.486C134.683 16.746 134.107 17.676 133.435 18.276C132.775 18.876 131.965 19.176 131.005 19.176C130.261 19.176 129.631 19.014 129.115 18.69L129.547 16.566C129.991 16.782 130.411 16.89 130.807 16.89C131.587 16.89 132.223 16.374 132.715 15.342L132.913 14.892L128.629 5.19H131.563L134.101 11.58Z" fill="#34BC85"/>
<path d="M75.382 36.216C74.338 36.216 73.372 36 72.484 35.568C71.596 35.136 70.882 34.524 70.342 33.732L71.872 31.878C72.76 33.114 73.936 33.732 75.4 33.732C75.952 33.732 76.408 33.6 76.768 33.336C77.128 33.072 77.308 32.73 77.308 32.31C77.308 31.758 76.906 31.296 76.102 30.924C76.006 30.876 75.568 30.702 74.788 30.402C74.176 30.162 73.654 29.922 73.222 29.682C71.818 28.878 71.116 27.774 71.116 26.37C71.116 25.254 71.536 24.33 72.376 23.598C73.228 22.854 74.32 22.482 75.652 22.482C77.38 22.482 78.838 23.082 80.026 24.282L78.604 26.226C78.244 25.842 77.794 25.542 77.254 25.326C76.726 25.098 76.204 24.984 75.688 24.984C75.16 24.984 74.74 25.104 74.428 25.344C74.128 25.572 73.978 25.878 73.978 26.262C73.978 26.778 74.338 27.216 75.058 27.576L76.372 28.152C77.116 28.464 77.656 28.698 77.992 28.854C79.504 29.586 80.26 30.69 80.26 32.166C80.26 33.354 79.81 34.326 78.91 35.082C78.01 35.838 76.834 36.216 75.382 36.216ZM87.9193 25.938C89.2993 25.938 90.4513 26.436 91.3753 27.432C92.2873 28.416 92.7433 29.634 92.7433 31.086C92.7433 32.526 92.2813 33.744 91.3573 34.74C90.4333 35.736 89.2813 36.234 87.9013 36.234C86.6893 36.234 85.6633 35.778 84.8233 34.866V40.032H82.2853V26.19H84.8053V27.396C85.6453 26.424 86.6833 25.938 87.9193 25.938ZM87.4693 33.912C88.2733 33.912 88.9273 33.642 89.4313 33.102C89.9353 32.562 90.1873 31.896 90.1873 31.104C90.1873 30.312 89.9353 29.646 89.4313 29.106C88.9273 28.566 88.2733 28.296 87.4693 28.296C86.6773 28.296 86.0293 28.566 85.5253 29.106C85.0213 29.646 84.7693 30.312 84.7693 31.104C84.7693 31.896 85.0213 32.562 85.5253 33.102C86.0293 33.642 86.6773 33.912 87.4693 33.912ZM104.329 30.87C104.329 31.17 104.299 31.542 104.239 31.986H96.8772C97.2372 33.378 98.1912 34.074 99.7392 34.074C100.879 34.074 101.935 33.744 102.907 33.084L103.915 34.866C102.667 35.766 101.239 36.216 99.6312 36.216C97.9152 36.216 96.5952 35.718 95.6712 34.722C94.7592 33.738 94.3032 32.526 94.3032 31.086C94.3032 29.586 94.7772 28.356 95.7252 27.396C96.6732 26.424 97.9032 25.938 99.4152 25.938C100.843 25.938 102.019 26.382 102.943 27.27C103.867 28.158 104.329 29.358 104.329 30.87ZM99.4152 28.044C98.7792 28.044 98.2332 28.23 97.7772 28.602C97.3332 28.962 97.0332 29.46 96.8772 30.096H101.863C101.743 29.46 101.467 28.962 101.035 28.602C100.603 28.23 100.063 28.044 99.4152 28.044ZM113.815 27.36V26.19H116.227V36H113.815V34.866C112.975 35.778 111.931 36.234 110.683 36.234C109.267 36.234 108.103 35.742 107.191 34.758C106.279 33.774 105.823 32.538 105.823 31.05C105.823 29.574 106.285 28.356 107.209 27.396C108.133 26.424 109.291 25.938 110.683 25.938C111.907 25.938 112.951 26.412 113.815 27.36ZM113.851 31.086C113.851 30.318 113.587 29.652 113.059 29.088C112.543 28.536 111.889 28.26 111.097 28.26C110.293 28.26 109.633 28.536 109.117 29.088C108.613 29.64 108.361 30.306 108.361 31.086C108.361 31.878 108.619 32.55 109.135 33.102C109.651 33.654 110.305 33.93 111.097 33.93C111.889 33.93 112.543 33.654 113.059 33.102C113.587 32.538 113.851 31.866 113.851 31.086ZM128.337 36H125.223L121.983 31.806L121.317 32.4V36H118.779V22.32H121.317V29.538L124.881 26.19H128.085L123.711 30.204L128.337 36ZM132.423 23.526C132.423 23.97 132.273 24.342 131.973 24.642C131.673 24.942 131.301 25.092 130.857 25.092C130.413 25.092 130.041 24.942 129.741 24.642C129.441 24.342 129.291 23.97 129.291 23.526C129.291 23.082 129.441 22.716 129.741 22.428C130.041 22.128 130.413 21.978 130.857 21.978C131.301 21.978 131.673 22.128 131.973 22.428C132.273 22.716 132.423 23.082 132.423 23.526ZM132.117 26.19V36H129.579V26.19H132.117ZM137.185 36H134.647V26.19H137.131V27.558C137.395 27.066 137.803 26.67 138.355 26.37C138.907 26.07 139.525 25.92 140.209 25.92C141.277 25.92 142.183 26.274 142.927 26.982C143.671 27.69 144.043 28.698 144.043 30.006V36H141.505V30.69C141.505 29.922 141.319 29.328 140.947 28.908C140.575 28.476 140.071 28.26 139.435 28.26C138.763 28.26 138.217 28.494 137.797 28.962C137.389 29.418 137.185 30.012 137.185 30.744V36ZM153.989 27.27V26.19H156.329V35.028C156.329 36.612 155.825 37.86 154.817 38.772C153.797 39.696 152.489 40.158 150.893 40.158C149.201 40.158 147.701 39.684 146.393 38.736L147.383 36.828C148.511 37.596 149.657 37.98 150.821 37.98C151.769 37.98 152.513 37.728 153.053 37.224C153.605 36.72 153.881 36.066 153.881 35.262V34.758C153.125 35.598 152.117 36.018 150.857 36.018C149.417 36.018 148.241 35.544 147.329 34.596C146.417 33.648 145.961 32.448 145.961 30.996C145.961 29.544 146.441 28.338 147.401 27.378C148.361 26.418 149.549 25.938 150.965 25.938C152.165 25.938 153.173 26.382 153.989 27.27ZM148.517 31.014C148.517 31.83 148.775 32.496 149.291 33.012C149.819 33.54 150.467 33.804 151.235 33.804C152.003 33.804 152.651 33.54 153.179 33.012C153.695 32.484 153.953 31.818 153.953 31.014C153.953 30.222 153.695 29.568 153.179 29.052C152.651 28.524 152.003 28.26 151.235 28.26C150.467 28.26 149.819 28.524 149.291 29.052C148.775 29.568 148.517 30.222 148.517 31.014Z" fill="#0F5156"/>
<path fill-rule="evenodd" clip-rule="evenodd" d="M0 4.4C0 1.96994 1.97522 0 4.41176 0H32.3529C34.7895 0 36.7647 1.96994 36.7647 4.4V11.7333H13.2353V24.9333H36.7647V32.2667C36.7647 34.6967 34.7895 36.6667 32.3529 36.6667H8.87579C7.90072 36.6667 6.9656 37.053 6.27613 37.7406L0 44V4.4ZM36.7647 24.9333V11.7333H50V24.9333H36.7647Z" fill="#34BC85"/>
</svg>
